<svg xmlns="http://www.w3.org/2000/svg" xmlns:xlink="http://www.w3.org/1999/xlink" width="83" height="83" viewBox="0 0 83 83">
  <defs>
    <clipPath id="clip-path">
      <circle id="Ellipse_640" data-name="Ellipse 640" cx="41.5" cy="41.5" r="41.5" transform="translate(-0.269 -0.269)" fill="#fff"/>
    </clipPath>
    <clipPath id="clip-path-2">
      <rect id="Rectangle_17328" data-name="Rectangle 17328" width="58.879" height="73.22" fill="none"/>
    </clipPath>
  </defs>
  <g id="Group_16095" data-name="Group 16095" transform="translate(-941.588 -87.588)">
    <circle id="Ellipse_641" data-name="Ellipse 641" cx="41.5" cy="41.5" r="41.5" transform="translate(941.588 87.588)" fill="#3a64bb"/>
    <g id="Mask_Group_1" data-name="Mask Group 1" transform="translate(941.857 87.857)" clip-path="url(#clip-path)">
      <g id="Group_16093" data-name="Group 16093" transform="translate(12.413 10.244)">
        <rect id="Rectangle_17327" data-name="Rectangle 17327" width="2.663" height="10.368" transform="translate(27.921 3.85)" fill="#fff"/>
        <g id="Group_16092" data-name="Group 16092">
          <g id="Group_16091" data-name="Group 16091" clip-path="url(#clip-path-2)">
            <path id="Path_9784" data-name="Path 9784" d="M102.3,95.957A21.607,21.607,0,1,1,83.684,77.342,21.616,21.616,0,0,1,102.3,95.957" transform="translate(-51.623 -67.203)" fill="#fff"/>
            <path id="Path_9785" data-name="Path 9785" d="M204.418,3.1A3.853,3.853,0,1,1,201.393.071,3.856,3.856,0,0,1,204.418,3.1" transform="translate(-171.387 0)" fill="#fff"/>
            <path id="Path_9786" data-name="Path 9786" d="M70.312,387.751a23.167,23.167,0,0,0-23.167,23.167H93.479a23.167,23.167,0,0,0-23.167-23.167" transform="translate(-41.059 -337.698)" fill="#fff"/>
            <path id="Path_9787" data-name="Path 9787" d="M104.6,201.711H79.116a7.446,7.446,0,1,1,0-14.893H104.6a7.446,7.446,0,0,1,0,14.893" transform="translate(-62.418 -162.702)" fill="#052361"/>
            <path id="Path_9788" data-name="Path 9788" d="M103.115,213.185a4.514,4.514,0,1,1-3.544-3.544,4.519,4.519,0,0,1,3.544,3.544" transform="translate(-82.02 -182.506)" fill="#fff"/>
            <path id="Path_9789" data-name="Path 9789" d="M202.143,245.162a3.85,3.85,0,0,1-3.85-3.85c0-1.314,7.7-1.333,7.7,0a3.85,3.85,0,0,1-3.85,3.85" transform="translate(-172.696 -209.297)" fill="#fff"/>
            <path id="Path_9790" data-name="Path 9790" d="M299.922,213.185a4.514,4.514,0,1,1-3.544-3.544,4.519,4.519,0,0,1,3.544,3.544" transform="translate(-253.422 -182.506)" fill="#fff"/>
            <path id="Path_9791" data-name="Path 9791" d="M53.5,75.746a25.042,25.042,0,0,0-23.984-17.2A25.229,25.229,0,0,0,5.343,75.757,6.952,6.952,0,0,0,0,82.433a7.088,7.088,0,0,0,7.148,6.983V75.507a23.635,23.635,0,0,1,22.369-15.4A23.442,23.442,0,0,1,51.73,75.575V89.416a7.089,7.089,0,0,0,7.149-6.983A6.955,6.955,0,0,0,53.5,75.746" transform="translate(0 -50.989)" fill="#fff"/>
          </g>
        </g>
      </g>
    </g>
  </g>
</svg>
