<svg xmlns="http://www.w3.org/2000/svg" width="16.286" height="22.81" viewBox="0 0 16.286 22.81">
  <g id="microphone_1_" data-name="microphone (1)" transform="translate(-35.782)" opacity="0.3">
    <path id="Path_75" data-name="Path 75" d="M52.068,112.842a.684.684,0,0,0-1.368,0,6.775,6.775,0,1,1-13.551,0,.684.684,0,0,0-1.368,0,8.154,8.154,0,0,0,7.459,8.114v2.419H40.2a.684.684,0,1,0,0,1.368h7.459a.684.684,0,1,0,0-1.368H44.609v-2.419A8.154,8.154,0,0,0,52.068,112.842Z" transform="translate(0 -101.932)"/>
    <path id="Path_76" data-name="Path 76" d="M81.1,15.323a4.418,4.418,0,0,0,4.413-4.413v-6.5a4.413,4.413,0,0,0-8.827,0v6.5A4.418,4.418,0,0,0,81.1,15.323ZM78.056,4.413a3.046,3.046,0,0,1,6.092,0v6.5a3.046,3.046,0,0,1-6.092,0Z" transform="translate(-37.176)"/>
  </g>
</svg>
