<svg xmlns="http://www.w3.org/2000/svg" width="18.584" height="22.301" viewBox="0 0 18.584 22.301">
  <path id="document_36_" data-name="document (36)" d="M15.938,13.009a.929.929,0,0,1-.929.929H7.575a.929.929,0,1,1,0-1.858h7.434A.929.929,0,0,1,15.938,13.009ZM12.221,15.8H7.575a.929.929,0,0,0,0,1.858h4.646a.929.929,0,0,0,0-1.858Zm8.363-6.054v7.912A4.652,4.652,0,0,1,15.938,22.3H6.646A4.652,4.652,0,0,1,2,17.655V4.646A4.652,4.652,0,0,1,6.646,0h4.2a6.465,6.465,0,0,1,4.6,1.9l3.237,3.239A6.459,6.459,0,0,1,20.584,9.743ZM14.127,3.219a4.655,4.655,0,0,0-.977-.725V6.5a.929.929,0,0,0,.929.929h4.01a4.63,4.63,0,0,0-.726-.976Zm4.6,6.524c0-.153-.03-.3-.044-.451h-4.6A2.788,2.788,0,0,1,11.292,6.5V1.9c-.151-.014-.3-.044-.451-.044h-4.2A2.788,2.788,0,0,0,3.858,4.646V17.655a2.788,2.788,0,0,0,2.788,2.788h9.292a2.788,2.788,0,0,0,2.788-2.788Z" transform="translate(-2 0)" fill="#97aedc"/>
</svg>
