<svg xmlns="http://www.w3.org/2000/svg" width="23.836" height="23.836" viewBox="0 0 23.836 23.836">
  <g id="send-mail_1_" data-name="send-mail (1)" transform="translate(0 0)">
    <path id="Path_9095" data-name="Path 9095" d="M119.92,19.229v7.345a.7.7,0,0,0,1.257.419l3.588-4.782,1.094-.56L137.7,4.906l.22-1.3L136,4.667l-16.08,13.959Z" transform="translate(-114.333 -3.436)" fill="#e8e8e8"/>
    <path id="Path_9096" data-name="Path 9096" d="M22.869.056C22.838.068.416,11.326.385,11.341A.7.7,0,0,0,.332,12.56l5.254,3.234,18-15.625h0A.676.676,0,0,0,22.869.056Z" transform="translate(0 0)" fill="#fff"/>
    <path id="Path_9097" data-name="Path 9097" d="M237.242,3.638c-.01-.01-.013-.025-.024-.034l-.137.194L224.062,22.21l8.057,4.958a.7.7,0,0,0,1.052-.466l4.284-22.439A.7.7,0,0,0,237.242,3.638Z" transform="translate(-213.631 -3.436)" fill="#fff"/>
  </g>
</svg>
